<?xml version="1.0" encoding="utf-8"?>
<!-- Generator: Adobe Illustrator 21.1.0, SVG Export Plug-In . SVG Version: 6.00 Build 0)  -->
<svg version="1.1" id="Calque_1" xmlns="http://www.w3.org/2000/svg" xmlns:xlink="http://www.w3.org/1999/xlink" x="0px" y="0px"
	 viewBox="0 0 194.4 156" style="enable-background:new 0 0 194.4 156;" xml:space="preserve">
<style type="text/css">
	.st0{font-family:'Malvie';}
	.st1{font-size:100px;}
	.st2{fill:#FF4813;}
</style>
<text transform="matrix(1 0 0 1 114.7452 139.3268)" class="st0 st1">C</text>
<g>
	<g>
	</g>
	<g>
		<path class="st2" d="M52.9,18.5c0,0,22.5,37.6,39.2,33.8c16.6-3.7,42.8-44.2,63.1-43c0,0-32.9,11.5-43.7,51.2
			c0,0-3.8,32.7-8.8,41.4c0,0-19.1,41.8-52.4,49.9c0,0,41.5-27.5,47.9-82.6C98.2,69.3,78.2,71,52.9,18.5z"/>
		<ellipse transform="matrix(1 -4.959252e-03 4.959252e-03 1 -0.2104 0.4455)" class="st2" cx="89.7" cy="42.6" rx="5.3" ry="5.3"/>
	</g>
</g>
<text transform="matrix(1 0 0 1 8.7452 139.3268)" class="st0 st1">F</text>
</svg>
