<?xml version="1.0" encoding="utf-8"?>
<!-- Generator: Adobe Illustrator 21.1.0, SVG Export Plug-In . SVG Version: 6.00 Build 0)  -->
<svg version="1.1" xmlns="http://www.w3.org/2000/svg" xmlns:xlink="http://www.w3.org/1999/xlink" x="0px" y="0px"
	 viewBox="0 0 439.1 162" style="enable-background:new 0 0 439.1 162;" xml:space="preserve">
<style type="text/css">
	.st0{font-family:'Malvie';}
	.st1{font-size:48px;}
	.st2{fill:#FF4813;}
</style>
<g id="forme_orange_1_">
</g>
<g id="forme_bleue">
</g>
<g id="altères">
</g>
<g id="alteres_2">
</g>
<g id="forme_rouge">
	<g>
		<text transform="matrix(1 0 0 1 279.1665 99.7676)" class="st0 st1">Coach</text>
		<text transform="matrix(1 0 0 1 193.1665 99.7676)" class="st0 st1">our</text>
		<text transform="matrix(1 0 0 1 59.1665 99.7676)" class="st0 st1">Find</text>
		<g>
			<g>
			</g>
			<g>
				<path class="st2" d="M135.8,21.9c0,0,22.5,37.6,39.2,33.8c16.6-3.7,42.8-44.2,63.1-43c0,0-32.9,11.5-43.7,51.2
					c0,0-3.8,32.7-8.8,41.4c0,0-19.1,41.8-52.4,49.9c0,0,41.5-27.5,47.9-82.6C181.1,72.7,161.1,74.5,135.8,21.9z"/>
				
					<ellipse transform="matrix(1 -4.959252e-03 4.959252e-03 1 -0.2264 0.8567)" class="st2" cx="172.6" cy="46.1" rx="5.3" ry="5.3"/>
			</g>
		</g>
	</g>
</g>
</svg>
